<svg width="15" height="15" viewBox="0 0 15 15" fill="none" xmlns="http://www.w3.org/2000/svg">
<path d="M8.5625 1.59375C8.875 1.90625 8.84375 2.375 8.5625 2.6875L4.78125 6.25H13.75C14.1875 6.25 14.5 6.59375 14.5 7V8C14.5 8.4375 14.1875 8.75 13.75 8.75H4.78125L8.5625 12.3438C8.84375 12.6562 8.84375 13.125 8.5625 13.4375L7.875 14.125C7.5625 14.4062 7.09375 14.4062 6.8125 14.125L0.71875 8.03125C0.4375 7.75 0.4375 7.28125 0.71875 6.96875L6.8125 0.90625C7.09375 0.625 7.5625 0.625 7.875 0.90625L8.5625 1.59375Z" fill="#2F1160"/>
</svg>
