<svg width="1280" height="1162" viewBox="0 0 1280 1162" fill="none" xmlns="http://www.w3.org/2000/svg">
<g clip-path="url(#clip0)">
<rect width="1280" height="1162" fill="white"/>
<path d="M113 117C113 114.791 111.209 113 109 113H-6C-8.20914 113 -10 114.791 -10 117V205.833C-10 208.042 -8.20914 209.833 -6 209.833H109C111.209 209.833 113 208.042 113 205.833V117Z" fill="white"/>
<path d="M607.809 978.36L1408.25 1310.36L1739.8 2111.86L1408.25 2913.37L607.801 3245.36L-192.644 2913.37L-524.199 2111.86L-192.644 1310.36L607.809 978.36Z" fill="#6200FF"/>
<path d="M300.436 1016.98L1159.52 1130.5L1687.23 1818.88L1574.41 2678.88L887.171 3206.74L28.0739 3093.23L-499.628 2404.84L-386.816 1544.84L300.436 1016.98Z" fill="#2F1160"/>
</g>
<defs>
<clipPath id="clip0">
<rect width="1280" height="1162" fill="white"/>
</clipPath>
</defs>
</svg>
