<svg width="64" height="49" viewBox="0 0 64 49" fill="none" xmlns="http://www.w3.org/2000/svg">
<path d="M58.0002 48.3711C61.2502 48.3711 64.0002 45.7461 64.0002 42.3711V6.37109C64.0002 3.12109 61.2502 0.371094 58.0002 0.371094H6.00017C2.62517 0.371094 0.000171661 3.12109 0.000171661 6.37109V42.3711C0.000171661 45.7461 2.62517 48.3711 6.00017 48.3711H58.0002ZM14.0002 7.37109C17.7502 7.37109 21.0002 10.6211 21.0002 14.3711C21.0002 18.2461 17.7502 21.3711 14.0002 21.3711C10.1252 21.3711 7.00017 18.2461 7.00017 14.3711C7.00017 10.6211 10.1252 7.37109 14.0002 7.37109ZM8.00017 40.3711V34.3711L16.8752 25.4961C17.5002 24.8711 18.3752 24.8711 19.0002 25.4961L26.0002 32.3711L42.8752 15.4961C43.5002 14.8711 44.3752 14.8711 45.0002 15.4961L56.0002 26.3711V40.3711H8.00017Z" fill="#2F1160"/>
</svg>
