<svg width="22" height="21" viewBox="0 0 22 21" fill="none" xmlns="http://www.w3.org/2000/svg">
<path d="M3.78544 17.3661V8.07143H6.87919V17.3661H3.78544ZM7.08008 5.20536C7.08008 6.08928 6.41044 6.8125 5.32561 6.8125H5.31222C4.26758 6.8125 3.59794 6.08928 3.59794 5.20536C3.59794 4.29464 4.29436 3.59821 5.3524 3.59821C6.41044 3.59821 7.06669 4.29464 7.08008 5.20536ZM14.9149 17.3661V12.3973C14.9149 11.1384 14.4729 10.2946 13.3613 10.2946C12.5042 10.2946 11.9953 10.8705 11.7676 11.4196C11.6872 11.6205 11.6738 11.9018 11.6738 12.1696V17.3661H8.58008C8.62026 8.94196 8.58008 8.07143 8.58008 8.07143H11.6738V9.42411H11.647C12.0488 8.78125 12.7854 7.85714 14.4462 7.85714C16.4819 7.85714 18.0087 9.18304 18.0087 12.0357V17.3661H14.9149ZM21.1828 4C21.1828 1.87053 19.4551 0.142856 17.3256 0.142856H4.46847C2.33901 0.142856 0.611328 1.87053 0.611328 4V16.8571C0.611328 18.9866 2.33901 20.7143 4.46847 20.7143H17.3256C19.4551 20.7143 21.1828 18.9866 21.1828 16.8571V4Z" fill="#2F1160"/>
</svg>
